<?xml version="1.0" ?><!-- Uploaded to: SVG Repo, www.svgrepo.com, Generator: SVG Repo Mixer Tools -->
<svg width="800px" height="800px" viewBox="0 0 64 64" data-name="Lovely Valentine's day" id="Lovely_Valentine_s_day" xmlns="http://www.w3.org/2000/svg"><defs><style>.cls-1{fill:#e29e9a;}.cls-2{fill:#623905;}.cls-3{fill:#f6e3a6;}.cls-4{fill:#d26274;}.cls-5{fill:#fff0cc;}.cls-6{fill:#842835;}</style></defs><title/><circle class="cls-1" cx="32" cy="32" r="28"/><path class="cls-2" d="M41,21a1,1,0,0,1-1-1V13H31v7a1,1,0,0,1-2,0V12a1,1,0,0,1,1-1H41a1,1,0,0,1,1,1v8A1,1,0,0,1,41,21Z"/><path class="cls-3" d="M51,48H19a1,1,0,0,1-1-1V21a2,2,0,0,1,2-2H50a2,2,0,0,1,2,2V47A1,1,0,0,1,51,48Z"/><path class="cls-2" d="M51,49H19a2,2,0,0,1-2-2V21a3,3,0,0,1,3-3H50a3,3,0,0,1,3,3V47A2,2,0,0,1,51,49ZM20,20a1,1,0,0,0-1,1V47H51V21a1,1,0,0,0-1-1Z"/><path class="cls-4" d="M51.555,48.3l-4,2.667A1,1,0,0,1,46,50.131V24.07a2,2,0,0,1,.891-1.664l2-1.333A2,2,0,0,1,52,22.737V47.465A1,1,0,0,1,51.555,48.3Z"/><path class="cls-2" d="M47,52.132a2,2,0,0,1-2-2V24.07a3,3,0,0,1,1.336-2.5l2-1.333A3,3,0,0,1,53,22.737V47.465a2,2,0,0,1-.891,1.664h0l-4,2.666A1.992,1.992,0,0,1,47,52.132Zm2.991-30.4a.967.967,0,0,0-.546.172l-2,1.333A1,1,0,0,0,47,24.07V50.131l4-2.666V22.737a.978.978,0,0,0-.528-.882A1.041,1.041,0,0,0,49.991,21.733Z"/><path class="cls-4" d="M17.555,48.3l-4,2.667A1,1,0,0,1,12,50.131V24.07a2,2,0,0,1,.891-1.664l2-1.333A2,2,0,0,1,18,22.737V47.465A1,1,0,0,1,17.555,48.3Z"/><path class="cls-2" d="M13,52.132a2,2,0,0,1-2-2V24.07a3,3,0,0,1,1.336-2.5l2-1.333A3,3,0,0,1,19,22.737V47.465a2,2,0,0,1-.891,1.664h0l-4,2.666A1.992,1.992,0,0,1,13,52.132Zm2.991-30.4a.967.967,0,0,0-.546.172l-2,1.333A1,1,0,0,0,13,24.07V50.131l4-2.666V22.737a.978.978,0,0,0-.528-.882A1.041,1.041,0,0,0,15.991,21.733Z"/><path class="cls-3" d="M14,23H44a2,2,0,0,1,2,2V51a1,1,0,0,1-1,1H13a1,1,0,0,1-1-1V25A2,2,0,0,1,14,23Z"/><path class="cls-2" d="M45,53H13a2,2,0,0,1-2-2V25a3,3,0,0,1,3-3H44a3,3,0,0,1,3,3V51A2,2,0,0,1,45,53ZM14,24a1,1,0,0,0-1,1V51H45V25a1,1,0,0,0-1-1Z"/><rect class="cls-5" height="20.471" rx="2" width="24" x="17" y="27.265"/><path class="cls-2" d="M35,35H24a1,1,0,0,1-1-1V26a1,1,0,0,1,2,0v7h9V26a1,1,0,0,1,2,0v8A1,1,0,0,1,35,35Z"/><path class="cls-6" d="M34,39.446a2.37,2.37,0,0,1-.7,1.7l-1.7,1.7-1.888,1.894a1,1,0,0,1-1.417,0L26.4,42.844l-1.7-1.7a2.39,2.39,0,0,1,.18-3.559,2.508,2.508,0,0,1,3.323.266l.793.793.8-.8a2.514,2.514,0,0,1,3.1-.419A2.368,2.368,0,0,1,34,39.446Z"/><path class="cls-2" d="M29,46.032a1.984,1.984,0,0,1-1.417-.589L24,41.852a3.391,3.391,0,0,1,.254-5.041,3.521,3.521,0,0,1,4.663.335L29,37.23l.089-.09a3.519,3.519,0,0,1,4.34-.556A3.4,3.4,0,0,1,34,41.858l-3.58,3.586A1.987,1.987,0,0,1,29,46.032Zm-2.646-7.959a1.31,1.31,0,0,0-.838.288,1.391,1.391,0,0,0-.108,2.074L29,44.032l3.588-3.594a1.4,1.4,0,0,0-.233-2.167,1.51,1.51,0,0,0-1.851.284l-.8.8a1.029,1.029,0,0,1-1.415,0L27.5,38.56A1.635,1.635,0,0,0,26.354,38.073Z"/></svg>